<svg xmlns="http://www.w3.org/2000/svg" xmlns:xlink="http://www.w3.org/1999/xlink" width="100" zoomAndPan="magnify" viewBox="0 0 172.5 222.749994" height="100" preserveAspectRatio="xMidYMid meet" version="1.0"><defs><clipPath id="49fd3c382e"><path d="M 0.691406 0.613281 L 81.316406 0.613281 L 81.316406 81.242188 L 0.691406 81.242188 Z M 0.691406 0.613281 " clip-rule="nonzero"/></clipPath><clipPath id="01eb19fcde"><rect x="0" width="82" y="0" height="82"/></clipPath></defs><g transform="matrix(1, 0, 0, 1, 45, 70)"><g clip-path="url(#01eb19fcde)"><g clip-path="url(#49fd3c382e)"><path fill="#231f20" d="M 41.003906 0.613281 C 18.742188 0.613281 0.691406 18.664062 0.691406 40.925781 C 0.691406 63.191406 18.742188 81.242188 41.003906 81.242188 C 63.269531 81.242188 81.316406 63.191406 81.316406 40.925781 C 81.316406 18.664062 63.269531 0.613281 41.003906 0.613281 Z M 47.789062 62.269531 C 47.789062 63.109375 46.992188 63.589844 45.394531 63.589844 L 36.613281 63.589844 C 35.097656 63.589844 34.21875 63.105469 34.21875 62.269531 L 34.21875 34.046875 C 34.21875 33.164062 35.097656 32.726562 36.613281 32.726562 L 45.394531 32.726562 C 46.992188 32.726562 47.789062 33.167969 47.789062 34.046875 Z M 41.003906 29.71875 C 37.042969 29.71875 33.828125 26.503906 33.828125 22.539062 C 33.828125 18.578125 37.039062 15.359375 41.003906 15.359375 C 44.96875 15.359375 48.183594 18.574219 48.183594 22.539062 C 48.183594 26.503906 44.96875 29.71875 41.003906 29.71875 Z M 41.003906 29.71875 " fill-opacity="1" fill-rule="nonzero"/></g></g></g></svg>