<svg xmlns="http://www.w3.org/2000/svg" xmlns:xlink="http://www.w3.org/1999/xlink" width="230" zoomAndPan="magnify" viewBox="0 0 172.5 222.749994" height="297" preserveAspectRatio="xMidYMid meet" version="1.0"><defs><clipPath id="75d300e703"><path d="M 0 0.195312 L 172 0.195312 L 172 222.304688 L 0 222.304688 Z M 0 0.195312 " clip-rule="nonzero"/></clipPath><clipPath id="885f5540ac"><path d="M 0 0.195312 L 171.703125 0.195312 L 171.703125 221.917969 L 0 221.917969 Z M 0 0.195312 " clip-rule="nonzero"/></clipPath><clipPath id="802618a164"><path d="M 74.183594 99.105469 L 98.074219 99.105469 L 98.074219 122.996094 L 74.183594 122.996094 Z M 74.183594 99.105469 " clip-rule="nonzero"/></clipPath><clipPath id="3b5898faf2"><rect x="0" width="172" y="0" height="223"/></clipPath></defs><g clip-path="url(#75d300e703)"><path fill="#ffffff" d="M 0 0.195312 L 172 0.195312 L 172 222.304688 L 0 222.304688 Z M 0 0.195312 " fill-opacity="1" fill-rule="nonzero"/><g transform="matrix(1, 0, 0, 1, 0, -0.000000000000016542)"><g clip-path="url(#3b5898faf2)"><g clip-path="url(#885f5540ac)"><path fill="#ffffff" d="M 0 0.195312 L 171.703125 0.195312 L 171.703125 221.917969 L 0 221.917969 Z M 0 0.195312 " fill-opacity="1" fill-rule="nonzero"/></g><g clip-path="url(#802618a164)"><path fill="#231f20" d="M 86.128906 99.105469 C 79.53125 99.105469 74.183594 104.453125 74.183594 111.050781 C 74.183594 117.648438 79.53125 122.996094 86.128906 122.996094 C 92.726562 122.996094 98.074219 117.648438 98.074219 111.050781 C 98.074219 104.453125 92.726562 99.105469 86.128906 99.105469 Z M 88.140625 117.375 C 88.140625 117.625 87.902344 117.765625 87.429688 117.765625 L 84.828125 117.765625 C 84.378906 117.765625 84.117188 117.621094 84.117188 117.375 L 84.117188 109.011719 C 84.117188 108.75 84.378906 108.621094 84.828125 108.621094 L 87.429688 108.621094 C 87.902344 108.621094 88.140625 108.75 88.140625 109.011719 Z M 86.128906 107.730469 C 84.953125 107.730469 84.003906 106.777344 84.003906 105.601562 C 84.003906 104.429688 84.953125 103.476562 86.128906 103.476562 C 87.304688 103.476562 88.257812 104.429688 88.257812 105.601562 C 88.257812 106.777344 87.304688 107.730469 86.128906 107.730469 Z M 86.128906 107.730469 " fill-opacity="1" fill-rule="nonzero"/></g></g></g></g></svg>