<?xml version='1.0' encoding='utf-8'?>
<!-- Generator: imaengine 6.0   -->
<svg xmlns:xlink="http://www.w3.org/1999/xlink" xmlns="http://www.w3.org/2000/svg" viewBox="0,0,172,172" style="enable-background:new 0 0 172 172;" version="1.1">
<defs>
<mask id="mask" mask-type="alpha">
<g>
<path d="M4,4L168,4L168,168L4,168L4,4Z" fill="#000000"/>
</g>
</mask>
<mask id="mask_2" mask-type="alpha">
<g>
<path d="M4.68359,4.68359L167.426,4.68359L167.426,167.426L4.68359,167.426L4.68359,4.68359Z" fill="#000000"/>
</g>
</mask>
</defs>
<g id="layer0">
<g mask="url(#mask)">
<path d="M97.4219,86.0547C97.4219,86.8008 97.3477,87.5391 97.2031,88.2734C97.0586,89.0039 96.8398,89.7148 96.5547,90.4062C96.2695,91.0938 95.9219,91.75 95.5078,92.3711C95.0898,92.9922 94.6211,93.5664 94.0938,94.0938C93.5664,94.6211 92.9922,95.0898 92.3711,95.5078C91.75,95.9219 91.0938,96.2695 90.4062,96.5547C89.7148,96.8398 89.0039,97.0586 88.2734,97.2031C87.5391,97.3477 86.8008,97.4219 86.0547,97.4219C85.3086,97.4219 84.5703,97.3477 83.8398,97.2031C83.1055,97.0586 82.3945,96.8398 81.707,96.5547C81.0156,96.2695 80.3633,95.9219 79.7422,95.5078C79.1211,95.0898 78.5469,94.6211 78.0195,94.0938C77.4922,93.5664 77.0195,92.9922 76.6055,92.3711C76.1914,91.75 75.8398,91.0938 75.5547,90.4062C75.2695,89.7148 75.0547,89.0039 74.9062,88.2734C74.7617,87.5391 74.6875,86.8008 74.6875,86.0547C74.6875,85.3086 74.7617,84.5703 74.9062,83.8398C75.0547,83.1055 75.2695,82.3945 75.5547,81.707C75.8398,81.0156 76.1914,80.3633 76.6055,79.7422C77.0195,79.1211 77.4922,78.5469 78.0195,78.0195C78.5469,77.4922 79.1211,77.0195 79.7422,76.6055C80.3633,76.1914 81.0156,75.8398 81.707,75.5547C82.3945,75.2695 83.1055,75.0547 83.8398,74.9062C84.5703,74.7617 85.3086,74.6875 86.0547,74.6875C86.8008,74.6875 87.5391,74.7617 88.2734,74.9062C89.0039,75.0547 89.7148,75.2695 90.4062,75.5547C91.0938,75.8398 91.75,76.1914 92.3711,76.6055C92.9922,77.0195 93.5664,77.4922 94.0938,78.0195C94.6211,78.5469 95.0898,79.1211 95.5078,79.7422C95.9219,80.3633 96.2695,81.0156 96.5547,81.707C96.8398,82.3945 97.0586,83.1055 97.2031,83.8398C97.3477,84.5703 97.4219,85.3086 97.4219,86.0547L97.4219,86.0547Z" fill="#000000"/>
<path d="M56.7344,86.0547C56.7344,86.8008 56.6602,87.5391 56.5156,88.2734C56.3672,89.0039 56.1523,89.7148 55.8672,90.4062C55.582,91.0938 55.2305,91.75 54.8164,92.3711C54.4023,92.9922 53.9297,93.5664 53.4023,94.0938C52.875,94.6211 52.3008,95.0898 51.6797,95.5078C51.0625,95.9219 50.4062,96.2695 49.7148,96.5547C49.0273,96.8398 48.3164,97.0586 47.5859,97.2031C46.8516,97.3477 46.1133,97.4219 45.3672,97.4219C44.6211,97.4219 43.8828,97.3477 43.1484,97.2031C42.418,97.0586 41.707,96.8398 41.0156,96.5547C40.3281,96.2695 39.6719,95.9219 39.0508,95.5078C38.4297,95.0898 37.8594,94.6211 37.3281,94.0938C36.8008,93.5664 36.332,92.9922 35.918,92.3711C35.5,91.75 35.1523,91.0938 34.8672,90.4062C34.582,89.7148 34.3633,89.0039 34.2188,88.2734C34.0742,87.5391 34,86.8008 34,86.0547C34,85.3086 34.0742,84.5703 34.2188,83.8398C34.3633,83.1055 34.582,82.3945 34.8672,81.707C35.1523,81.0156 35.5,80.3633 35.918,79.7422C36.332,79.1211 36.8008,78.5469 37.3281,78.0195C37.8594,77.4922 38.4297,77.0195 39.0508,76.6055C39.6719,76.1914 40.3281,75.8398 41.0156,75.5547C41.707,75.2695 42.418,75.0547 43.1484,74.9062C43.8828,74.7617 44.6211,74.6875 45.3672,74.6875C46.1133,74.6875 46.8516,74.7617 47.5859,74.9062C48.3164,75.0547 49.0273,75.2695 49.7148,75.5547C50.4062,75.8398 51.0625,76.1914 51.6797,76.6055C52.3008,77.0195 52.875,77.4922 53.4023,78.0195C53.9297,78.5469 54.4023,79.1211 54.8164,79.7422C55.2305,80.3633 55.582,81.0156 55.8672,81.707C56.1523,82.3945 56.3672,83.1055 56.5156,83.8398C56.6602,84.5703 56.7344,85.3086 56.7344,86.0547L56.7344,86.0547Z" fill="#000000"/>
<path d="M138.109,86.0547C138.109,86.8008 138.039,87.5391 137.891,88.2734C137.746,89.0039 137.531,89.7148 137.246,90.4062C136.961,91.0938 136.609,91.75 136.195,92.3711C135.781,92.9922 135.309,93.5664 134.781,94.0938C134.254,94.6211 133.68,95.0898 133.059,95.5078C132.438,95.9219 131.781,96.2695 131.094,96.5547C130.402,96.8398 129.695,97.0586 128.961,97.2031C128.23,97.3477 127.492,97.4219 126.742,97.4219C125.996,97.4219 125.258,97.3477 124.527,97.2031C123.793,97.0586 123.086,96.8398 122.395,96.5547C121.703,96.2695 121.051,95.9219 120.43,95.5078C119.809,95.0898 119.234,94.6211 118.707,94.0938C118.18,93.5664 117.707,92.9922 117.293,92.3711C116.879,91.75 116.527,91.0938 116.242,90.4062C115.957,89.7148 115.742,89.0039 115.598,88.2734C115.449,87.5391 115.379,86.8008 115.379,86.0547C115.379,85.3086 115.449,84.5703 115.598,83.8398C115.742,83.1055 115.957,82.3945 116.242,81.707C116.527,81.0156 116.879,80.3633 117.293,79.7422C117.707,79.1211 118.18,78.5469 118.707,78.0195C119.234,77.4922 119.809,77.0195 120.43,76.6055C121.051,76.1914 121.703,75.8398 122.395,75.5547C123.086,75.2695 123.793,75.0547 124.527,74.9062C125.258,74.7617 125.996,74.6875 126.742,74.6875C127.492,74.6875 128.23,74.7617 128.961,74.9062C129.695,75.0547 130.402,75.2695 131.094,75.5547C131.781,75.8398 132.438,76.1914 133.059,76.6055C133.68,77.0195 134.254,77.4922 134.781,78.0195C135.309,78.5469 135.781,79.1211 136.195,79.7422C136.609,80.3633 136.961,81.0156 137.246,81.707C137.531,82.3945 137.746,83.1055 137.891,83.8398C138.039,84.5703 138.109,85.3086 138.109,86.0547L138.109,86.0547Z" fill="#000000"/>
<g mask="url(#mask_2)">
<path d="M86.0547,167.41C41.1953,167.41 4.70312,130.914 4.70312,86.0547C4.70312,41.1953 41.1953,4.70312 86.0547,4.70312C130.914,4.70312 167.41,41.1953 167.41,86.0547C167.41,130.914 130.914,167.41 86.0547,167.41L86.0547,167.41ZM86.0547,13.4141C46,13.4141 13.4141,46 13.4141,86.0547C13.4141,126.109 46,158.695 86.0547,158.695C126.109,158.695 158.695,126.109 158.695,86.0547C158.695,46 126.109,13.4141 86.0547,13.4141L86.0547,13.4141Z" fill="#000000"/>
</g>
</g>
</g>
</svg>
