<svg xmlns="http://www.w3.org/2000/svg" xmlns:xlink="http://www.w3.org/1999/xlink" width="230" zoomAndPan="magnify" viewBox="0 0 172.5 172.499994" height="230" preserveAspectRatio="xMidYMid meet" version="1.0"><defs><clipPath id="9ccda861cb"><path d="M 0 0 L 171.703125 0 L 171.703125 171.703125 L 0 171.703125 Z M 0 0 " clip-rule="nonzero"/></clipPath><clipPath id="883e8a0b12"><path d="M 5.558594 5.558594 L 166.445312 5.558594 L 166.445312 166.445312 L 5.558594 166.445312 Z M 5.558594 5.558594 " clip-rule="nonzero"/></clipPath><clipPath id="63f499c4ae"><path d="M 86 5.558594 C 41.574219 5.558594 5.558594 41.574219 5.558594 86 C 5.558594 130.429688 41.574219 166.445312 86 166.445312 C 130.429688 166.445312 166.445312 130.429688 166.445312 86 C 166.445312 41.574219 130.429688 5.558594 86 5.558594 Z M 86 5.558594 " clip-rule="nonzero"/></clipPath><clipPath id="0163464f7a"><path d="M 0.558594 0.558594 L 161.445312 0.558594 L 161.445312 161.445312 L 0.558594 161.445312 Z M 0.558594 0.558594 " clip-rule="nonzero"/></clipPath><clipPath id="56d2d25a9c"><path d="M 81 0.558594 C 36.574219 0.558594 0.558594 36.574219 0.558594 81 C 0.558594 125.429688 36.574219 161.445312 81 161.445312 C 125.429688 161.445312 161.445312 125.429688 161.445312 81 C 161.445312 36.574219 125.429688 0.558594 81 0.558594 Z M 81 0.558594 " clip-rule="nonzero"/></clipPath><clipPath id="c63736296a"><rect x="0" width="162" y="0" height="162"/></clipPath><clipPath id="855a2cf77f"><rect x="0" width="172" y="0" height="172"/></clipPath></defs><path fill="#ffffff" d="M 0 0 L 172 0 L 172 172 L 0 172 Z M 0 0 " fill-opacity="1" fill-rule="nonzero"/><g transform="matrix(1, 0, 0, 1, 0, 0)"><g clip-path="url(#855a2cf77f)"><g clip-path="url(#9ccda861cb)"><path fill="#ffffff" d="M 0 0 L 171.703125 0 L 171.703125 171.703125 L 0 171.703125 Z M 0 0 " fill-opacity="1" fill-rule="nonzero"/></g><g clip-path="url(#883e8a0b12)"><g clip-path="url(#63f499c4ae)"><g transform="matrix(1, 0, 0, 1, 5, 5)"><g clip-path="url(#c63736296a)"><g clip-path="url(#0163464f7a)"><g clip-path="url(#56d2d25a9c)"><path fill="#ffffff" d="M 0.558594 0.558594 L 161.445312 0.558594 L 161.445312 161.445312 L 0.558594 161.445312 Z M 0.558594 0.558594 " fill-opacity="1" fill-rule="nonzero"/></g></g></g></g></g></g></g></g></svg>