<svg xmlns="http://www.w3.org/2000/svg" xmlns:xlink="http://www.w3.org/1999/xlink" width="25" zoomAndPan="magnify" viewBox="0 0 172.5 222.749994" height="25" preserveAspectRatio="xMidYMid meet" version="1.0"><defs><clipPath id="794874c165"><path d="M 0.539062 14 L 93.109375 14 L 93.109375 107.195312 L 0.539062 107.195312 Z M 0.539062 14 " clip-rule="nonzero"/></clipPath><clipPath id="ed585dd5c4"><path d="M 38 0.441406 L 56 0.441406 L 56 9 L 38 9 Z M 38 0.441406 " clip-rule="nonzero"/></clipPath><clipPath id="b7c2aad79b"><rect x="0" width="94" y="0" height="108"/></clipPath></defs><g transform="matrix(1, 0, 0, 1, 39, 57)"><g clip-path="url(#b7c2aad79b)"><path fill="#ffffff" d="M 46.964844 99.914062 C 25.476562 99.914062 7.992188 82.429688 7.992188 61.003906 C 7.992188 41.765625 22.34375 25.164062 41.390625 22.46875 C 43.207031 22.21875 45.023438 22.15625 46.964844 22.15625 C 48.53125 22.15625 49.910156 22.21875 51.351562 22.40625 L 51.539062 22.40625 C 51.539062 22.40625 51.539062 22.40625 51.664062 22.40625 C 71.214844 24.722656 85.875 41.453125 85.875 61.066406 C 85.875 82.429688 68.394531 99.914062 46.964844 99.914062 Z M 46.964844 25.101562 C 45.273438 25.101562 43.457031 25.164062 41.828125 25.414062 C 24.285156 27.980469 11.0625 43.269531 11.0625 61.003906 C 11.0625 80.800781 27.105469 96.84375 46.964844 96.84375 C 66.765625 96.84375 82.804688 80.800781 82.804688 61.003906 C 82.804688 42.832031 69.273438 27.542969 51.289062 25.351562 L 51.101562 25.351562 C 49.722656 25.164062 48.40625 25.101562 46.964844 25.101562 Z M 46.964844 25.101562 " fill-opacity="1" fill-rule="evenodd"/><path fill="#ffffff" d="M 46.964844 33.621094 C 46.089844 33.621094 45.398438 32.933594 45.398438 32.054688 L 45.398438 27.542969 C 45.398438 26.667969 46.089844 25.976562 46.964844 25.976562 C 47.84375 25.976562 48.53125 26.667969 48.53125 27.542969 L 48.53125 32.117188 C 48.53125 32.933594 47.84375 33.621094 46.964844 33.621094 Z M 46.964844 33.621094 " fill-opacity="1" fill-rule="evenodd"/><path fill="#ffffff" d="M 61.378906 37.507812 C 61.125 37.507812 60.875 37.445312 60.5625 37.316406 C 59.875 36.941406 59.621094 36.066406 60 35.25 L 62.253906 31.367188 C 62.691406 30.675781 63.570312 30.363281 64.320312 30.738281 C 65.011719 31.179688 65.261719 32.054688 64.949219 32.808594 L 62.691406 36.753906 C 62.378906 37.253906 61.878906 37.507812 61.378906 37.507812 Z M 61.378906 37.507812 " fill-opacity="1" fill-rule="evenodd"/><path fill="#ffffff" d="M 71.964844 48.03125 C 71.464844 48.03125 70.902344 47.78125 70.648438 47.28125 C 70.210938 46.527344 70.460938 45.589844 71.277344 45.148438 L 75.160156 42.894531 C 75.851562 42.457031 76.851562 42.707031 77.292969 43.519531 C 77.730469 44.210938 77.417969 45.148438 76.664062 45.589844 L 72.78125 47.84375 C 72.46875 47.96875 72.214844 48.03125 71.964844 48.03125 Z M 71.964844 48.03125 " fill-opacity="1" fill-rule="evenodd"/><path fill="#ffffff" d="M 80.300781 62.445312 L 75.789062 62.445312 C 74.910156 62.445312 74.222656 61.753906 74.222656 60.878906 C 74.222656 60 74.910156 59.3125 75.789062 59.3125 L 80.300781 59.3125 C 81.175781 59.3125 81.867188 60 81.867188 60.878906 C 81.867188 61.753906 81.175781 62.445312 80.300781 62.445312 Z M 80.300781 62.445312 " fill-opacity="1" fill-rule="evenodd"/><path fill="#ffffff" d="M 75.851562 79.171875 C 75.601562 79.171875 75.347656 79.046875 75.097656 78.984375 L 71.214844 76.730469 C 70.460938 76.289062 70.210938 75.414062 70.585938 74.597656 C 71.027344 73.910156 71.902344 73.660156 72.65625 74.035156 L 76.601562 76.289062 C 77.292969 76.730469 77.542969 77.605469 77.167969 78.359375 C 76.914062 78.859375 76.414062 79.171875 75.851562 79.171875 Z M 75.851562 79.171875 " fill-opacity="1" fill-rule="evenodd"/><path fill="#ffffff" d="M 63.632812 91.390625 C 63.132812 91.390625 62.566406 91.140625 62.316406 90.640625 L 60.0625 86.691406 C 59.621094 86.003906 59.875 85.0625 60.5625 84.625 C 61.25 84.183594 62.253906 84.4375 62.691406 85.125 L 64.949219 89.074219 C 65.386719 89.761719 65.074219 90.703125 64.382812 91.140625 C 64.132812 91.328125 63.882812 91.390625 63.632812 91.390625 Z M 63.632812 91.390625 " fill-opacity="1" fill-rule="evenodd"/><path fill="#ffffff" d="M 46.964844 95.902344 C 46.089844 95.902344 45.398438 95.214844 45.398438 94.335938 L 45.398438 89.824219 C 45.398438 88.949219 46.089844 88.257812 46.964844 88.257812 C 47.84375 88.257812 48.53125 88.949219 48.53125 89.824219 L 48.53125 94.335938 C 48.53125 95.214844 47.84375 95.902344 46.964844 95.902344 Z M 46.964844 95.902344 " fill-opacity="1" fill-rule="evenodd"/><path fill="#ffffff" d="M 30.363281 91.390625 C 30.109375 91.390625 29.796875 91.328125 29.546875 91.203125 C 28.859375 90.765625 28.609375 89.824219 29.046875 89.136719 L 31.300781 85.25 C 31.742188 84.5625 32.679688 84.25 33.371094 84.6875 C 34.058594 85.125 34.371094 86.066406 33.933594 86.816406 L 31.675781 90.703125 C 31.300781 91.140625 30.863281 91.390625 30.363281 91.390625 Z M 30.363281 91.390625 " fill-opacity="1" fill-rule="evenodd"/><path fill="#ffffff" d="M 18.019531 79.171875 C 17.453125 79.171875 16.953125 78.859375 16.703125 78.359375 C 16.265625 77.667969 16.515625 76.730469 17.328125 76.289062 L 21.214844 74.035156 C 21.902344 73.597656 22.84375 73.847656 23.28125 74.597656 C 23.71875 75.351562 23.46875 76.289062 22.71875 76.730469 L 18.769531 78.984375 C 18.519531 79.171875 18.269531 79.171875 18.019531 79.171875 Z M 18.019531 79.171875 " fill-opacity="1" fill-rule="evenodd"/><path fill="#ffffff" d="M 18.082031 62.445312 L 13.570312 62.445312 C 12.691406 62.445312 12.003906 61.753906 12.003906 60.878906 C 12.003906 60 12.691406 59.3125 13.570312 59.3125 L 18.082031 59.3125 C 18.957031 59.3125 19.648438 60 19.648438 60.878906 C 19.648438 61.753906 18.957031 62.445312 18.082031 62.445312 Z M 18.082031 62.445312 " fill-opacity="1" fill-rule="evenodd"/><path fill="#ffffff" d="M 22.027344 48.03125 C 21.714844 48.03125 21.464844 47.96875 21.214844 47.84375 L 17.328125 45.589844 C 16.640625 45.148438 16.328125 44.273438 16.703125 43.519531 C 17.140625 42.832031 18.019531 42.582031 18.769531 42.894531 L 22.71875 45.148438 C 23.40625 45.589844 23.65625 46.464844 23.28125 47.28125 C 23.03125 47.78125 22.53125 48.03125 22.027344 48.03125 Z M 22.027344 48.03125 " fill-opacity="1" fill-rule="evenodd"/><path fill="#ffffff" d="M 32.492188 37.507812 C 31.992188 37.507812 31.488281 37.253906 31.238281 36.753906 L 28.984375 32.808594 C 28.542969 32.117188 28.796875 31.179688 29.546875 30.738281 C 30.238281 30.300781 31.238281 30.550781 31.675781 31.367188 L 33.933594 35.25 C 34.371094 35.941406 34.058594 36.941406 33.308594 37.316406 C 33.054688 37.445312 32.804688 37.507812 32.492188 37.507812 Z M 32.492188 37.507812 " fill-opacity="1" fill-rule="evenodd"/><path fill="#ffffff" d="M 62.691406 62.445312 L 46.964844 62.445312 C 46.089844 62.445312 45.398438 61.753906 45.398438 60.878906 L 45.398438 39.324219 C 45.398438 38.445312 46.089844 37.757812 46.964844 37.757812 C 47.84375 37.757812 48.40625 38.445312 48.40625 39.324219 L 48.40625 59.4375 L 62.566406 59.4375 C 63.445312 59.4375 64.132812 60.125 64.132812 61.003906 C 64.132812 61.878906 63.445312 62.445312 62.691406 62.445312 Z M 62.691406 62.445312 " fill-opacity="1" fill-rule="evenodd"/><g clip-path="url(#794874c165)"><path fill="#ffffff" d="M 46.964844 107.367188 C 21.339844 107.367188 0.539062 86.503906 0.539062 61.003906 C 0.539062 38.070312 17.640625 18.207031 40.324219 15.011719 C 43.019531 14.636719 45.023438 14.574219 46.964844 14.574219 C 48.65625 14.574219 50.476562 14.636719 52.480469 14.949219 C 75.851562 17.707031 93.457031 37.507812 93.457031 61.066406 C 93.457031 86.503906 72.59375 107.367188 46.964844 107.367188 Z M 46.964844 17.519531 C 45.210938 17.519531 43.269531 17.707031 40.761719 17.957031 C 19.585938 21.027344 3.609375 39.511719 3.609375 60.878906 C 3.609375 84.8125 23.03125 104.234375 46.964844 104.234375 C 70.902344 104.234375 90.386719 84.8125 90.386719 60.878906 C 90.386719 38.882812 73.972656 20.402344 52.167969 17.769531 C 50.222656 17.644531 48.53125 17.519531 46.964844 17.519531 Z M 46.964844 17.519531 " fill-opacity="1" fill-rule="evenodd"/></g><path fill="#ffffff" d="M 79.984375 32.054688 C 79.609375 32.054688 79.171875 31.867188 78.921875 31.617188 C 78.292969 30.988281 78.292969 30.050781 78.921875 29.421875 L 83.683594 24.660156 C 84.308594 24.035156 85.25 24.035156 85.875 24.660156 C 86.503906 25.289062 86.503906 26.226562 85.875 26.855469 L 81.113281 31.617188 C 80.738281 31.929688 80.425781 32.054688 79.984375 32.054688 Z M 76.726562 28.921875 C 76.414062 28.921875 75.976562 28.734375 75.726562 28.484375 C 75.097656 27.855469 75.097656 26.917969 75.726562 26.289062 L 80.488281 21.464844 C 81.113281 20.839844 82.054688 20.839844 82.679688 21.464844 C 83.246094 22.03125 83.246094 23.03125 82.679688 23.597656 L 77.855469 28.421875 C 77.542969 28.734375 77.167969 28.921875 76.726562 28.921875 Z M 76.726562 28.921875 " fill-opacity="1" fill-rule="evenodd"/><path fill="#ffffff" d="M 87.253906 28.859375 C 86.316406 28.859375 85.375 28.421875 84.75 27.730469 L 79.546875 22.46875 C 78.859375 21.90625 78.480469 20.902344 78.480469 19.960938 C 78.480469 19.023438 78.859375 18.144531 79.546875 17.457031 C 80.113281 16.765625 80.988281 16.390625 81.992188 16.390625 C 82.992188 16.390625 83.871094 16.765625 84.558594 17.457031 L 89.761719 22.65625 C 91.203125 24.160156 91.078125 26.289062 89.761719 27.605469 C 89.195312 28.484375 88.195312 28.859375 87.253906 28.859375 Z M 81.992188 19.648438 C 81.867188 19.648438 81.804688 19.648438 81.679688 19.710938 C 81.679688 19.710938 81.617188 19.773438 81.617188 19.773438 C 81.550781 19.898438 81.550781 20.023438 81.550781 20.023438 C 81.550781 20.023438 81.550781 20.210938 81.617188 20.339844 L 86.941406 25.601562 C 87.066406 25.789062 87.191406 25.789062 87.253906 25.789062 C 87.378906 25.789062 87.441406 25.789062 87.503906 25.726562 C 87.691406 25.539062 87.691406 25.164062 87.503906 24.910156 L 82.304688 19.710938 C 82.242188 19.648438 82.117188 19.648438 81.992188 19.648438 Z M 81.992188 19.648438 " fill-opacity="1" fill-rule="evenodd"/><path fill="#ffffff" d="M 44.082031 17.707031 C 43.207031 17.707031 42.515625 17.015625 42.515625 16.140625 L 42.515625 7.179688 C 42.515625 6.304688 43.207031 5.613281 44.082031 5.613281 C 44.960938 5.613281 45.648438 6.304688 45.648438 7.179688 L 45.648438 16.140625 C 45.523438 17.015625 44.960938 17.707031 44.082031 17.707031 Z M 49.910156 17.644531 C 49.035156 17.644531 48.34375 16.953125 48.34375 16.078125 L 48.34375 7.179688 C 48.34375 6.304688 49.035156 5.613281 49.910156 5.613281 C 50.789062 5.613281 51.476562 6.304688 51.476562 7.179688 L 51.476562 16.078125 C 51.351562 16.953125 50.789062 17.644531 49.910156 17.644531 Z M 49.910156 17.644531 " fill-opacity="1" fill-rule="evenodd"/><g clip-path="url(#ed585dd5c4)"><path fill="#ffffff" d="M 51.789062 8.746094 L 42.140625 8.746094 C 39.886719 8.746094 38.007812 6.929688 38.007812 4.675781 C 38.007812 2.417969 39.824219 0.476562 42.140625 0.476562 L 51.789062 0.476562 C 54.046875 0.476562 55.988281 2.355469 55.988281 4.675781 C 55.988281 6.929688 54.171875 8.746094 51.789062 8.746094 Z M 42.140625 3.546875 C 41.578125 3.546875 41.011719 4.046875 41.011719 4.675781 C 41.011719 5.300781 41.578125 5.738281 42.140625 5.738281 L 51.789062 5.738281 C 52.417969 5.738281 52.917969 5.300781 52.917969 4.675781 C 52.917969 4.046875 52.417969 3.546875 51.789062 3.546875 Z M 42.140625 3.546875 " fill-opacity="1" fill-rule="evenodd"/></g></g></g></svg>