<?xml version='1.0' encoding='utf-8'?>
<!-- Generator: imaengine 6.0   -->
<svg xmlns:xlink="http://www.w3.org/1999/xlink" xmlns="http://www.w3.org/2000/svg" viewBox="0,0,172,172" style="enable-background:new 0 0 172 172;" version="1.1">
<defs>
<mask id="mask" mask-type="alpha">
<g>
<path d="M49,27L124,27L124,156L49,156L49,27Z" fill="#000000"/>
</g>
</mask>
<mask id="mask_2" mask-type="alpha">
<g>
<path d="M49.4062,137L122.566,137L122.566,154.707L49.4062,154.707L49.4062,137Z" fill="#000000"/>
</g>
</mask>
<mask id="mask_3" mask-type="alpha">
<g>
<path d="M49.4062,27.793L122.566,27.793L122.566,46L49.4062,46L49.4062,27.793Z" fill="#000000"/>
</g>
</mask>
</defs>
<g id="layer0">
<g mask="url(#mask)">
<g mask="url(#mask_2)">
<path d="M53.7891,141.32C53.5,141.32 53.2617,141.555 53.2617,141.848L53.2617,150.332C53.2617,150.621 53.5,150.859 53.7891,150.859L118.195,150.859C118.484,150.859 118.723,150.621 118.723,150.332L118.723,141.848C118.723,141.555 118.484,141.32 118.195,141.32L53.7891,141.32ZM118.195,154.707L53.7891,154.707C51.3789,154.707 49.4141,152.742 49.4141,150.332L49.4141,141.848C49.4141,139.434 51.3789,137.473 53.7891,137.473L118.195,137.473C120.605,137.473 122.57,139.434 122.57,141.848L122.57,150.332C122.57,152.742 120.605,154.707 118.195,154.707L118.195,154.707Z" fill="#000000"/>
</g>
<path d="M111.641,141.32C110.578,141.32 109.719,140.461 109.719,139.398L109.719,137.312C109.719,119.094 100.469,102.488 84.9766,92.8867C68.3477,82.5781 58.418,64.7461 58.418,45.1875L58.418,43.1016C58.418,42.043 59.2812,41.1797 60.3438,41.1797C61.4062,41.1797 62.2656,42.043 62.2656,43.1016L62.2656,45.1875C62.2656,63.4062 71.5156,80.0117 87.0078,89.6133C103.637,99.9219 113.566,117.754 113.566,137.312L113.566,139.398C113.566,140.461 112.703,141.32 111.641,141.32L111.641,141.32Z" fill="#000000"/>
<path d="M94.4062,86.7422C93.8945,86.7422 93.3789,86.5391 92.9961,86.1328C92.2734,85.3555 92.3164,84.1406 93.0938,83.4141C103.66,73.5625 109.719,59.6289 109.719,45.1875L109.719,43.1016C109.719,42.043 110.578,41.1797 111.641,41.1797C112.703,41.1797 113.566,42.043 113.566,43.1016L113.566,45.1875C113.566,60.6875 107.059,75.6484 95.7188,86.2266C95.3477,86.5742 94.875,86.7422 94.4062,86.7422L94.4062,86.7422Z" fill="#000000"/>
<path d="M60.3438,141.32C59.2812,141.32 58.418,140.461 58.418,139.398L58.418,137.312C58.418,121.332 65.2617,106.066 77.1953,95.4297C77.9844,94.7188 79.2031,94.7891 79.9102,95.5859C80.6211,96.375 80.5508,97.5938 79.7539,98.2969C68.6406,108.207 62.2656,122.426 62.2656,137.312L62.2656,139.398C62.2656,140.461 61.4062,141.32 60.3438,141.32L60.3438,141.32Z" fill="#000000"/>
<g mask="url(#mask_3)">
<path d="M53.7891,31.6406C53.5,31.6406 53.2617,31.8789 53.2617,32.168L53.2617,40.6523C53.2617,40.9453 53.5,41.1797 53.7891,41.1797L118.195,41.1797C118.484,41.1797 118.723,40.9453 118.723,40.6523L118.723,32.168C118.723,31.8789 118.484,31.6406 118.195,31.6406L53.7891,31.6406ZM118.195,45.0273L53.7891,45.0273C51.3789,45.0273 49.4141,43.0664 49.4141,40.6523L49.4141,32.168C49.4141,29.7578 51.3789,27.793 53.7891,27.793L118.195,27.793C120.605,27.793 122.57,29.7578 122.57,32.168L122.57,40.6523C122.57,43.0664 120.605,45.0273 118.195,45.0273L118.195,45.0273Z" fill="#000000"/>
</g>
</g>
</g>
</svg>
