<svg xmlns="http://www.w3.org/2000/svg" xmlns:xlink="http://www.w3.org/1999/xlink" width="45" zoomAndPan="magnify" viewBox="0 0 172.5 172.499994" height="45" preserveAspectRatio="xMidYMid meet" version="1.0"><defs><clipPath id="8390f687f7"><path d="M 0.558594 0.558594 L 161.445312 0.558594 L 161.445312 161.445312 L 0.558594 161.445312 Z M 0.558594 0.558594 " clip-rule="nonzero"/></clipPath><clipPath id="52d2447f8f"><path d="M 81 0.558594 C 36.574219 0.558594 0.558594 36.574219 0.558594 81 C 0.558594 125.429688 36.574219 161.445312 81 161.445312 C 125.429688 161.445312 161.445312 125.429688 161.445312 81 C 161.445312 36.574219 125.429688 0.558594 81 0.558594 Z M 81 0.558594 " clip-rule="nonzero"/></clipPath><clipPath id="eda4b409bf"><path d="M 0.558594 0.558594 L 161.445312 0.558594 L 161.445312 161.445312 L 0.558594 161.445312 Z M 0.558594 0.558594 " clip-rule="nonzero"/></clipPath><clipPath id="89c632147a"><path d="M 81 0.558594 C 36.574219 0.558594 0.558594 36.574219 0.558594 81 C 0.558594 125.429688 36.574219 161.445312 81 161.445312 C 125.429688 161.445312 161.445312 125.429688 161.445312 81 C 161.445312 36.574219 125.429688 0.558594 81 0.558594 Z M 81 0.558594 " clip-rule="nonzero"/></clipPath><clipPath id="a73da0735e"><rect x="0" width="162" y="0" height="162"/></clipPath><clipPath id="bbeb608a52"><path d="M 15 4.019531 L 146 4.019531 L 146 152 L 15 152 Z M 15 4.019531 " clip-rule="nonzero"/></clipPath><clipPath id="61fe1c56e5"><rect x="0" width="162" y="0" height="162"/></clipPath></defs><g transform="matrix(1, 0, 0, 1, 5, 5)"><g clip-path="url(#61fe1c56e5)"><g clip-path="url(#8390f687f7)"><g clip-path="url(#52d2447f8f)"><g transform="matrix(1, 0, 0, 1, 0, 0.000000000000000888)"><g clip-path="url(#a73da0735e)"><g clip-path="url(#eda4b409bf)"><g clip-path="url(#89c632147a)"><path fill="#ffffff" d="M 0.558594 0.558594 L 161.445312 0.558594 L 161.445312 161.445312 L 0.558594 161.445312 Z M 0.558594 0.558594 " fill-opacity="1" fill-rule="nonzero"/></g></g></g></g></g></g><g clip-path="url(#bbeb608a52)"><path fill="#ffffff" d="M 74.039062 21.230469 C 74.464844 19.902344 74.554688 18.816406 73.910156 17.78125 C 72.472656 16.511719 70.410156 17.710938 68.65625 16.269531 C 67.773438 12.804688 68.179688 9.046875 68.546875 4.789062 C 76.546875 4.050781 84.378906 4.347656 92.34375 4.585938 C 93.339844 8.789062 93.097656 12.53125 92.65625 16.050781 C 91.015625 17.726562 88.988281 16.621094 87.402344 17.542969 C 86.261719 18.519531 86.832031 19.808594 86.777344 21.027344 C 87.292969 21.320312 87.660156 21.707031 88.085938 21.78125 C 96.691406 23.089844 104.894531 25.5625 112.488281 29.875 C 114.039062 30.757812 115.21875 30.554688 115.992188 28.804688 C 116.046875 27.128906 113.910156 26.945312 113.539062 24.917969 C 114.257812 22.558594 116.121094 20.511719 118.644531 18.28125 C 123.402344 21.488281 127.972656 24.785156 132.339844 28.324219 C 131.199219 31.257812 129.503906 33.136719 128.027344 34.796875 C 126.3125 35.589844 125.335938 34.464844 124.175781 34.058594 C 123.492188 33.820312 122.957031 34.132812 122.515625 34.628906 C 121.890625 35.347656 121.890625 36.140625 122.496094 36.769531 C 123.363281 37.707031 124.394531 38.480469 125.28125 39.386719 C 143.472656 57.742188 149.796875 79.640625 142.589844 104.394531 C 135.527344 128.632812 118.902344 143.933594 94.296875 149.515625 C 57.136719 157.941406 21.011719 131.839844 16.292969 94.109375 C 12.199219 61.265625 34.59375 28.398438 69.671875 22.445312 C 71.070312 22.207031 72.527344 22.152344 74.039062 21.230469 Z M 83.753906 138.199219 C 109.558594 137.371094 135.253906 111.253906 132.007812 89.316406 C 130.238281 88.136719 127.84375 89.722656 126.148438 88.027344 C 125.90625 86.625 125.519531 85.207031 126.609375 84.101562 C 128.46875 83.214844 130.589844 84.378906 132.230469 83.015625 C 132.121094 55.070312 104.988281 33.5625 83.660156 34.8125 C 82.738281 36.527344 83.734375 38.628906 82.609375 40.4375 C 81.15625 41.097656 79.699219 41.246094 78.371094 40.269531 C 77.320312 38.390625 78.574219 36.25 77.285156 34.628906 C 53.746094 33.300781 26.117188 61.226562 29.195312 83.199219 C 30.984375 84.394531 33.339844 82.957031 35.148438 84.414062 C 35.609375 85.796875 35.832031 87.144531 34.945312 88.394531 C 33.027344 89.519531 30.6875 88.0625 28.972656 89.574219 C 29.066406 116.855469 55.386719 138.808594 77.542969 137.8125 C 78.539062 135.949219 77.285156 133.683594 78.539062 131.839844 C 79.917969 131.160156 81.285156 131.121094 82.609375 131.859375 C 83.917969 133.722656 82.609375 135.988281 83.753906 138.199219 Z M 83.753906 138.199219 " fill-opacity="1" fill-rule="nonzero"/></g><path fill="#ffffff" d="M 70.390625 96.636719 C 68.453125 94.257812 67.515625 91.769531 66.410156 89.667969 C 67.257812 88.15625 68.398438 87.898438 69.414062 87.492188 C 71.386719 86.699219 72.839844 85.6875 73.800781 83.511719 C 75.292969 80.136719 78.09375 78.996094 81.746094 80.082031 C 83.976562 80.746094 85.707031 80.324219 87.660156 79.457031 C 96.230469 75.605469 104.820312 71.824219 113.558594 67.953125 C 114.054688 69.6875 112.691406 69.742188 112.082031 70.128906 C 104.875 74.867188 97.652344 79.53125 90.40625 84.210938 C 88.527344 85.429688 86.851562 86.570312 86.148438 89.042969 C 85.414062 91.675781 83.015625 93.613281 80.378906 93.28125 C 76.933594 92.855469 74.609375 94.460938 72.066406 96.0625 C 71.660156 96.304688 71.164062 96.378906 70.390625 96.636719 Z M 70.390625 96.636719 " fill-opacity="1" fill-rule="nonzero"/></g></g></svg>