<svg xmlns="http://www.w3.org/2000/svg" xmlns:xlink="http://www.w3.org/1999/xlink" width="24" zoomAndPan="magnify" viewBox="0 0 172.5 222.749994" height="24" preserveAspectRatio="xMidYMid meet" version="1.0"><defs><clipPath id="57c0cde248"><path d="M 0.601562 0.832031 L 69.28125 0.832031 L 69.28125 79.21875 L 0.601562 79.21875 Z M 0.601562 0.832031 " clip-rule="nonzero"/></clipPath><clipPath id="d22912d283"><rect x="0" width="71" y="0" height="80"/></clipPath></defs><g transform="matrix(1, 0, 0, 1, 51, 71)"><g clip-path="url(#d22912d283)"><path fill="#000000" d="M 34.355469 21.210938 C 33.0625 21.210938 32.015625 22.265625 32.015625 23.5625 L 32.015625 45.511719 C 32.015625 46.8125 33.0625 47.863281 34.355469 47.863281 C 35.648438 47.863281 36.695312 46.8125 36.695312 45.511719 L 36.695312 23.5625 C 36.695312 22.265625 35.648438 21.210938 34.355469 21.210938 Z M 34.355469 21.210938 " fill-opacity="1" fill-rule="nonzero"/><g clip-path="url(#57c0cde248)"><path fill="#000000" d="M 69.089844 19.492188 C 69.089844 19.492188 67.984375 16.167969 65.777344 13.953125 C 63.570312 11.734375 60.261719 10.625 60.261719 10.625 L 53.246094 17.671875 C 49.503906 15.101562 45.214844 13.277344 40.597656 12.398438 L 40.597656 2.398438 C 40.597656 2.398438 37.476562 0.832031 34.355469 0.832031 C 31.234375 0.832031 28.113281 2.398438 28.113281 2.398438 L 28.113281 12.398438 C 12.582031 15.347656 0.796875 29.070312 0.796875 45.511719 C 0.796875 64.097656 15.851562 79.21875 34.355469 79.21875 C 52.859375 79.21875 67.914062 64.097656 67.914062 45.511719 C 67.914062 38.480469 65.757812 31.949219 62.074219 26.539062 Z M 34.355469 74.515625 C 18.433594 74.515625 5.480469 61.503906 5.480469 45.511719 C 5.480469 29.519531 18.433594 16.507812 34.355469 16.507812 C 50.277344 16.507812 63.230469 29.519531 63.230469 45.511719 C 63.230469 61.503906 50.277344 74.515625 34.355469 74.515625 Z M 34.355469 74.515625 " fill-opacity="1" fill-rule="nonzero"/></g></g></g></svg>