<svg xmlns="http://www.w3.org/2000/svg" xmlns:xlink="http://www.w3.org/1999/xlink" width="50" zoomAndPan="center" viewBox="0 0 172.5 222.749994" height="30" preserveAspectRatio="xMidYMid meet" version="1.0"><defs><clipPath id="20c3a441dc"><path d="M 0.601562 13 L 69.28125 13 L 69.28125 61.207031 L 0.601562 61.207031 Z M 0.601562 13 " clip-rule="nonzero"/></clipPath><clipPath id="71dee04ce3"><path d="M 1 0.738281 L 23 0.738281 L 23 35 L 1 35 Z M 1 0.738281 " clip-rule="nonzero"/></clipPath><clipPath id="f403af77bc"><rect x="0" width="71" y="0" height="62"/></clipPath></defs><g transform="matrix(1, 0, 0, 1, 51, 80)"><g clip-path="url(#f403af77bc)"><g clip-path="url(#20c3a441dc)"><path fill="#000000" d="M 5.402344 22.203125 C 6.8125 22.203125 8.21875 22.203125 9.628906 22.203125 C 12.976562 22.203125 16.324219 22.203125 19.683594 22.203125 C 23.664062 22.203125 27.644531 22.203125 31.625 22.203125 C 34.929688 22.203125 38.226562 22.203125 41.53125 22.203125 C 43.054688 22.203125 44.582031 22.167969 46.101562 22.210938 C 46.785156 22.234375 47.460938 22.292969 48.136719 22.382812 C 47.746094 22.332031 47.355469 22.277344 46.960938 22.226562 C 48.636719 22.460938 50.265625 22.914062 51.824219 23.5625 C 51.46875 23.414062 51.117188 23.265625 50.773438 23.117188 C 52.324219 23.78125 53.777344 24.636719 55.105469 25.660156 C 54.8125 25.433594 54.511719 25.195312 54.21875 24.96875 C 55.511719 25.976562 56.671875 27.144531 57.675781 28.441406 C 57.449219 28.144531 57.214844 27.84375 56.988281 27.546875 C 58.015625 28.882812 58.867188 30.347656 59.519531 31.898438 C 59.375 31.542969 59.226562 31.1875 59.078125 30.84375 C 59.734375 32.40625 60.179688 34.042969 60.410156 35.722656 C 60.359375 35.332031 60.304688 34.941406 60.253906 34.542969 C 60.488281 36.3125 60.488281 38.09375 60.253906 39.863281 C 60.304688 39.472656 60.359375 39.082031 60.410156 38.683594 C 60.175781 40.363281 59.726562 42 59.078125 43.5625 C 59.226562 43.210938 59.375 42.855469 59.519531 42.507812 C 58.859375 44.066406 58.007812 45.523438 56.988281 46.859375 C 57.214844 46.5625 57.449219 46.261719 57.675781 45.964844 C 56.671875 47.261719 55.511719 48.425781 54.21875 49.4375 C 54.511719 49.207031 54.8125 48.972656 55.105469 48.746094 C 53.777344 49.777344 52.316406 50.632812 50.773438 51.289062 C 51.125 51.140625 51.476562 50.992188 51.824219 50.84375 C 50.265625 51.5 48.636719 51.949219 46.960938 52.179688 C 47.351562 52.128906 47.738281 52.074219 48.136719 52.023438 C 46.6875 52.214844 45.25 52.207031 43.796875 52.207031 C 41.789062 52.207031 39.792969 52.207031 37.789062 52.207031 C 35.1875 52.207031 32.585938 52.207031 29.988281 52.207031 C 27.660156 52.207031 25.332031 52.207031 23.003906 52.207031 C 21.855469 52.207031 20.710938 52.195312 19.570312 52.207031 C 19.558594 52.207031 19.542969 52.207031 19.519531 52.207031 C 18.390625 52.207031 17.207031 52.703125 16.40625 53.503906 C 15.640625 54.273438 15.070312 55.53125 15.113281 56.628906 C 15.164062 57.773438 15.539062 58.960938 16.40625 59.753906 C 17.265625 60.550781 18.332031 61.050781 19.519531 61.050781 C 22.144531 61.050781 24.765625 61.050781 27.378906 61.050781 C 31.84375 61.050781 36.316406 61.050781 40.785156 61.050781 C 44.40625 61.050781 48.011719 61.191406 51.550781 60.265625 C 55.253906 59.292969 58.632812 57.375 61.472656 54.824219 C 62.898438 53.542969 64.132812 52.039062 65.210938 50.460938 C 66.300781 48.882812 67.101562 47.152344 67.785156 45.367188 C 68.496094 43.519531 68.832031 41.617188 69.074219 39.65625 C 69.28125 38.027344 69.28125 36.371094 69.074219 34.734375 C 68.828125 32.773438 68.488281 30.871094 67.785156 29.023438 C 67.09375 27.238281 66.292969 25.507812 65.210938 23.929688 C 63.046875 20.78125 60.238281 18.09375 56.875 16.265625 C 53.410156 14.386719 49.515625 13.359375 45.574219 13.339844 C 43.675781 13.332031 41.789062 13.339844 39.894531 13.339844 C 35.671875 13.339844 31.449219 13.339844 27.226562 13.339844 C 22.714844 13.339844 18.207031 13.339844 13.695312 13.339844 C 11.050781 13.339844 8.414062 13.339844 5.769531 13.339844 C 5.644531 13.339844 5.515625 13.339844 5.390625 13.339844 C 4.257812 13.339844 3.074219 13.832031 2.273438 14.636719 C 1.511719 15.402344 0.9375 16.664062 0.980469 17.761719 C 1.035156 18.902344 1.410156 20.089844 2.273438 20.886719 C 3.148438 21.703125 4.207031 22.203125 5.402344 22.203125 Z M 5.402344 22.203125 " fill-opacity="1" fill-rule="nonzero"/></g><g clip-path="url(#71dee04ce3)"><path fill="#000000" d="M 21.039062 27.222656 C 19.636719 25.816406 18.226562 24.402344 16.824219 22.992188 C 14.570312 20.730469 12.324219 18.476562 10.066406 16.214844 C 9.554688 15.695312 9.039062 15.179688 8.519531 14.65625 C 8.519531 16.742188 8.519531 18.828125 8.519531 20.914062 C 9.921875 19.507812 11.332031 18.09375 12.734375 16.683594 C 14.988281 14.421875 17.238281 12.167969 19.492188 9.902344 C 20.003906 9.386719 20.519531 8.871094 21.039062 8.347656 C 21.839844 7.546875 22.332031 6.359375 22.332031 5.222656 C 22.332031 4.140625 21.855469 2.84375 21.039062 2.097656 C 20.203125 1.324219 19.101562 0.75 17.925781 0.800781 C 16.757812 0.855469 15.65625 1.25 14.8125 2.097656 C 13.410156 3.507812 12 4.921875 10.597656 6.328125 C 8.34375 8.59375 6.09375 10.847656 3.839844 13.109375 C 3.324219 13.625 2.8125 14.140625 2.289062 14.664062 C 0.609375 16.351562 0.601562 19.226562 2.289062 20.921875 C 3.691406 22.332031 5.101562 23.746094 6.503906 25.152344 C 8.761719 27.414062 11.007812 29.671875 13.261719 31.933594 C 13.777344 32.449219 14.292969 32.964844 14.8125 33.488281 C 15.613281 34.292969 16.796875 34.785156 17.925781 34.785156 C 19.007812 34.785156 20.300781 34.304688 21.039062 33.488281 C 21.8125 32.648438 22.386719 31.542969 22.332031 30.363281 C 22.28125 29.175781 21.886719 28.070312 21.039062 27.222656 Z M 21.039062 27.222656 " fill-opacity="1" fill-rule="nonzero"/></g></g></g></svg>